{
  "accessors": [
    {
      "bufferView": 2,
      "componentType": 5126,
      "count": 2642,
      "max": [
        48.68370819091797,
        83.23468780517578,
        17.856857299804688
      ],
      "min": [
        -45.047725677490234,
        -0.15221291780471802,
        5.783382415771484
      ],
      "type": "VEC3"
    },
    {
      "bufferView": 2,
      "byteOffset": 31704,
      "componentType": 5126,
      "count": 2642,
      "max": [
        0.9999772906303406,
        0.9996392726898193,
        1.0
      ],
      "min": [
        -0.9999935626983643,
        -0.9999763369560242,
        -1.0
      ],
      "type": "VEC3"
    },
    {
      "bufferView": 1,
      "componentType": 5126,
      "count": 2642,
      "max": [
        0.999500572681427,
        0.965956449508667
      ],
      "min": [
        0.0004995007184334099,
        0.0004827371158171445
      ],
      "type": "VEC2"
    },
    {
      "bufferView": 0,
      "componentType": 5125,
      "count": 13440,
      "type": "SCALAR"
    }
  ],
  "asset": {
    "extras": {
      "author": "Oleksandr Pelypenko (https://sketchfab.com/ape.cgart)",
      "license": "CC-BY-4.0 (http://creativecommons.org/licenses/by/4.0/)",
      "source": "https://sketchfab.com/3d-models/gold-star-15adb339f45f4620a111c43e33388ba4",
      "title": "Gold Star"
    },
    "generator": "Sketchfab-12.67.0",
    "version": "2.0"
  },
  "bufferViews": [
    {
      "buffer": 0,
      "byteLength": 53760,
      "name": "floatBufferViews",
      "target": 34963
    },
    {
      "buffer": 0,
      "byteLength": 21136,
      "byteOffset": 53760,
      "byteStride": 8,
      "name": "floatBufferViews",
      "target": 34962
    },
    {
      "buffer": 0,
      "byteLength": 63408,
      "byteOffset": 74896,
      "byteStride": 12,
      "name": "floatBufferViews",
      "target": 34962
    }
  ],
  "buffers": [
    {
      "byteLength": 138304,
      "uri": "scene.bin"
    }
  ],
  "materials": [
    {
      "doubleSided": true,
      "name": "Gold",
      "pbrMetallicRoughness": {
        "baseColorFactor": [
          1.0,
          0.5564,
          0.0,
          1.0
        ],
        "metallicFactor": 0.0,
        "roughnessFactor": 0.9207483815999999
      }
    }
  ],
  "meshes": [
    {
      "name": "Star_Gold_0",
      "primitives": [
        {
          "attributes": {
            "NORMAL": 1,
            "POSITION": 0,
            "TEXCOORD_0": 2
          },
          "indices": 3,
          "material": 0,
          "mode": 4
        }
      ]
    }
  ],
  "nodes": [
    {
      "children": [
        1
      ],
      "matrix": [
        0.0076258485205471516,
        0.0,
        0.0,
        0.0,
        0.0,
        1.6932785219630268e-18,
        -0.0076258485205471516,
        0.0,
        0.0,
        0.0076258485205471516,
        1.6932785219630268e-18,
        0.0,
        0.0,
        0.0,
        0.0,
        1.0
      ],
      "name": "Sketchfab_model"
    },
    {
      "children": [
        2
      ],
      "matrix": [
        1.0,
        0.0,
        0.0,
        0.0,
        0.0,
        0.0,
        1.0,
        0.0,
        0.0,
        -1.0,
        0.0,
        0.0,
        0.0,
        0.0,
        0.0,
        1.0
      ],
      "name": "edecf65fc3ac4d3d97015cca14c1a6b9.fbx"
    },
    {
      "children": [
        3
      ],
      "name": "RootNode"
    },
    {
      "children": [
        4
      ],
      "name": "Star"
    },
    {
      "mesh": 0,
      "name": "Star_Gold_0"
    }
  ],
  "scene": 0,
  "scenes": [
    {
      "name": "Sketchfab_Scene",
      "nodes": [
        0
      ]
    }
  ]
}
