{
  "accessors": [
    {
      "bufferView": 2,
      "componentType": 5126,
      "count": 211,
      "max": [
        0.1455649584531784,
        1.4461703300476074,
        0.14709073305130005
      ],
      "min": [
        -0.1470876932144165,
        0.007672114763408899,
        -0.14679992198944092
      ],
      "type": "VEC3"
    },
    {
      "bufferView": 2,
      "byteOffset": 2532,
      "componentType": 5126,
      "count": 211,
      "max": [
        0.999994158744812,
        0.9999988079071045,
        0.9999923706054688
      ],
      "min": [
        -0.9999901056289673,
        -0.9846029281616211,
        -0.999994158744812
      ],
      "type": "VEC3"
    },
    {
      "bufferView": 1,
      "componentType": 5126,
      "count": 211,
      "max": [
        0.5112969875335693,
        0.9899295568466187
      ],
      "min": [
        0.00014919729437679052,
        0.00014919729437679052
      ],
      "type": "VEC2"
    },
    {
      "bufferView": 0,
      "componentType": 5125,
      "count": 1062,
      "type": "SCALAR"
    },
    {
      "bufferView": 2,
      "byteOffset": 5064,
      "componentType": 5126,
      "count": 131,
      "max": [
        0.11302497982978821,
        1.203240156173706,
        0.11237520724534988
      ],
      "min": [
        -0.11312130093574524,
        0.031151240691542625,
        -0.11273249238729477
      ],
      "type": "VEC3"
    },
    {
      "bufferView": 2,
      "byteOffset": 6636,
      "componentType": 5126,
      "count": 131,
      "max": [
        0.9999939203262329,
        0.8840466737747192,
        0.9999911785125732
      ],
      "min": [
        -0.9999945163726807,
        -0.9823552966117859,
        -0.9999967813491821
      ],
      "type": "VEC3"
    },
    {
      "bufferView": 1,
      "byteOffset": 1688,
      "componentType": 5126,
      "count": 131,
      "max": [
        0.9851611256599426,
        0.9802449345588684
      ],
      "min": [
        0.21833688020706177,
        0.15196865797042847
      ],
      "type": "VEC2"
    },
    {
      "bufferView": 0,
      "byteOffset": 4248,
      "componentType": 5125,
      "count": 522,
      "type": "SCALAR"
    },
    {
      "bufferView": 2,
      "byteOffset": 8208,
      "componentType": 5126,
      "count": 92,
      "max": [
        1.5658103227615356,
        0.6544328927993774,
        1.5666229724884033
      ],
      "min": [
        -1.5656136274337769,
        -1.3455651998519897,
        -1.5648009777069092
      ],
      "type": "VEC3"
    },
    {
      "bufferView": 2,
      "byteOffset": 9312,
      "componentType": 5126,
      "count": 92,
      "max": [
        0.9544636607170105,
        1.0,
        0.9539468288421631
      ],
      "min": [
        -0.9545873403549194,
        -1.0,
        -0.9551007747650146
      ],
      "type": "VEC3"
    },
    {
      "bufferView": 3,
      "componentType": 5126,
      "count": 92,
      "max": [
        0.9407538175582886,
        0.9505369067192078,
        0.9728454351425171,
        1.0
      ],
      "min": [
        -0.9782134890556335,
        -0.954987108707428,
        -0.9348769783973694,
        1.0
      ],
      "type": "VEC4"
    },
    {
      "bufferView": 1,
      "byteOffset": 2736,
      "componentType": 5126,
      "count": 92,
      "max": [
        0.998080313205719,
        0.9005798101425171
      ],
      "min": [
        0.0019196271896362305,
        0.0019196271896362305
      ],
      "type": "VEC2"
    },
    {
      "bufferView": 0,
      "byteOffset": 6336,
      "componentType": 5125,
      "count": 324,
      "type": "SCALAR"
    },
    {
      "bufferView": 2,
      "byteOffset": 10416,
      "componentType": 5126,
      "count": 15768,
      "max": [
        72.2793197631836,
        270.03955078125,
        -60.21868133544922
      ],
      "min": [
        -36.74074935913086,
        165.51339721679688,
        -136.42918395996094
      ],
      "type": "VEC3"
    },
    {
      "bufferView": 2,
      "byteOffset": 199632,
      "componentType": 5126,
      "count": 15768,
      "max": [
        0.9996598958969116,
        0.9994231462478638,
        0.9998804330825806
      ],
      "min": [
        -0.9984965324401855,
        -0.9995120763778687,
        -0.999658465385437
      ],
      "type": "VEC3"
    },
    {
      "bufferView": 1,
      "byteOffset": 3472,
      "componentType": 5126,
      "count": 15768,
      "max": [
        40.999996185302734,
        -0.0016069412231445313
      ],
      "min": [
        0.0,
        -0.001607060432434082
      ],
      "type": "VEC2"
    },
    {
      "bufferView": 0,
      "byteOffset": 7632,
      "componentType": 5125,
      "count": 94464,
      "type": "SCALAR"
    },
    {
      "bufferView": 2,
      "byteOffset": 388848,
      "componentType": 5126,
      "count": 853,
      "max": [
        1.037224531173706,
        1.047685980796814,
        0.9146971702575684
      ],
      "min": [
        -0.9086518287658691,
        -0.9454585313796997,
        -1.0820764303207397
      ],
      "type": "VEC3"
    },
    {
      "bufferView": 2,
      "byteOffset": 399084,
      "componentType": 5126,
      "count": 853,
      "max": [
        0.9699718952178955,
        0.9965752959251404,
        0.9983312487602234
      ],
      "min": [
        -0.9699718952178955,
        -0.9965752959251404,
        -0.9983312487602234
      ],
      "type": "VEC3"
    },
    {
      "bufferView": 1,
      "byteOffset": 129616,
      "componentType": 5126,
      "count": 853,
      "max": [
        1.0,
        0.875
      ],
      "min": [
        0.0,
        0.15064650774002075
      ],
      "type": "VEC2"
    },
    {
      "bufferView": 0,
      "byteOffset": 385488,
      "componentType": 5125,
      "count": 3840,
      "type": "SCALAR"
    }
  ],
  "asset": {
    "extras": {
      "author": "DJRadish (https://sketchfab.com/DJRadish)",
      "license": "CC-BY-4.0 (http://creativecommons.org/licenses/by/4.0/)",
      "source": "https://sketchfab.com/3d-models/healing-vial-02a52f5894e6468a9d0201abec8463c0",
      "title": "Healing Vial"
    },
    "generator": "Sketchfab-12.62.1",
    "version": "2.0"
  },
  "bufferViews": [
    {
      "buffer": 0,
      "byteLength": 400848,
      "name": "floatBufferViews",
      "target": 34963
    },
    {
      "buffer": 0,
      "byteLength": 136440,
      "byteOffset": 400848,
      "byteStride": 8,
      "name": "floatBufferViews",
      "target": 34962
    },
    {
      "buffer": 0,
      "byteLength": 409320,
      "byteOffset": 537288,
      "byteStride": 12,
      "name": "floatBufferViews",
      "target": 34962
    },
    {
      "buffer": 0,
      "byteLength": 1472,
      "byteOffset": 946608,
      "byteStride": 16,
      "name": "floatBufferViews",
      "target": 34962
    }
  ],
  "buffers": [
    {
      "byteLength": 948080,
      "uri": "scene.bin"
    }
  ],
  "extensionsUsed": [
    "KHR_materials_clearcoat",
    "KHR_materials_transmission"
  ],
  "images": [
    {
      "uri": "textures/cork_2_normal_tangent_normal.png"
    }
  ],
  "materials": [
    {
      "doubleSided": true,
      "name": "material_0",
      "pbrMetallicRoughness": {
        "baseColorFactor": [
          0.03263546557006772,
          0.07960604359011937,
          0.11126267932502007,
          1.0
        ],
        "metallicFactor": 0.0,
        "roughnessFactor": 0.6
      }
    },
    {
      "alphaMode": "BLEND",
      "doubleSided": true,
      "extensions": {
        "KHR_materials_clearcoat": {
          "clearcoatFactor": 0.15869988635117183,
          "clearcoatRoughnessFactor": 0.04
        },
        "KHR_materials_transmission": {
          "transmissionFactor": 1.0
        }
      },
      "name": "vial_normal_tangent",
      "pbrMetallicRoughness": {
        "baseColorFactor": [
          0.8140551229167615,
          0.9707695472701942,
          1.0,
          0.25
        ],
        "metallicFactor": 0.0,
        "roughnessFactor": 0.0954545
      }
    },
    {
      "doubleSided": true,
      "emissiveFactor": [
        0.5979046751886784,
        0.00567214195001432,
        0.0
      ],
      "name": "Fluid",
      "pbrMetallicRoughness": {
        "baseColorFactor": [
          0.30629300000000004,
          0.023424400000000012,
          0.023424400000000012,
          1.0
        ],
        "metallicFactor": 0.0,
        "roughnessFactor": 0.5
      }
    },
    {
      "doubleSided": true,
      "name": "cork_2_normal_tangent",
      "normalTexture": {
        "index": 0
      },
      "pbrMetallicRoughness": {
        "baseColorFactor": [
          0.6714777676896877,
          0.29356505016083323,
          0.13865764281950663,
          1.0
        ],
        "metallicFactor": 0.0,
        "roughnessFactor": 0.5
      }
    },
    {
      "doubleSided": true,
      "name": "Material.001",
      "pbrMetallicRoughness": {
        "baseColorFactor": [
          0.44927510665237774,
          0.23828358880268588,
          0.07354106152402931,
          1.0
        ],
        "metallicFactor": 0.0,
        "roughnessFactor": 0.5
      }
    }
  ],
  "meshes": [
    {
      "name": "Object_0",
      "primitives": [
        {
          "attributes": {
            "NORMAL": 1,
            "POSITION": 0,
            "TEXCOORD_0": 2
          },
          "indices": 3,
          "material": 1,
          "mode": 4
        }
      ]
    },
    {
      "name": "Object_1",
      "primitives": [
        {
          "attributes": {
            "NORMAL": 5,
            "POSITION": 4,
            "TEXCOORD_0": 6
          },
          "indices": 7,
          "material": 2,
          "mode": 4
        }
      ]
    },
    {
      "name": "Object_2",
      "primitives": [
        {
          "attributes": {
            "NORMAL": 9,
            "POSITION": 8,
            "TANGENT": 10,
            "TEXCOORD_0": 11
          },
          "indices": 12,
          "material": 3,
          "mode": 4
        }
      ]
    },
    {
      "name": "Object_3",
      "primitives": [
        {
          "attributes": {
            "NORMAL": 14,
            "POSITION": 13,
            "TEXCOORD_0": 15
          },
          "indices": 16,
          "material": 4,
          "mode": 4
        }
      ]
    },
    {
      "name": "Object_4",
      "primitives": [
        {
          "attributes": {
            "NORMAL": 18,
            "POSITION": 17,
            "TEXCOORD_0": 19
          },
          "indices": 20,
          "material": 0,
          "mode": 4
        }
      ]
    }
  ],
  "nodes": [
    {
      "children": [
        1
      ],
      "matrix": [
        1.0,
        0.0,
        0.0,
        0.0,
        0.0,
        2.220446049250313e-16,
        -1.0,
        0.0,
        0.0,
        1.0,
        2.220446049250313e-16,
        0.0,
        0.0,
        0.0,
        0.0,
        1.0
      ],
      "name": "Sketchfab_model"
    },
    {
      "children": [
        2
      ],
      "name": "root"
    },
    {
      "children": [
        3,
        7,
        9,
        11
      ],
      "matrix": [
        1.0,
        0.0,
        0.0,
        0.0,
        0.0,
        2.220446049250313e-16,
        1.0,
        0.0,
        0.0,
        -1.0,
        2.220446049250313e-16,
        0.0,
        0.0,
        0.0,
        0.0,
        1.0
      ],
      "name": "GLTF_SceneRootNode"
    },
    {
      "children": [
        4,
        5
      ],
      "matrix": [
        0.6567895370882819,
        0.34838196195880977,
        0.6687731398262724,
        0.0,
        0.23433630005406111,
        0.7486730421416439,
        -0.6201412536248089,
        0.0,
        -0.716738447725761,
        0.564020110060011,
        0.4100820808076838,
        0.0,
        -0.08549479395151138,
        0.09169360995292664,
        0.22625114023685455,
        1.0
      ],
      "name": "Vial_lowpoly_2"
    },
    {
      "mesh": 0,
      "name": "Object_4"
    },
    {
      "children": [
        6
      ],
      "name": "Fluid_1"
    },
    {
      "mesh": 1,
      "name": "Object_6"
    },
    {
      "children": [
        8
      ],
      "matrix": [
        0.05433946790167285,
        0.02896875691435614,
        0.05512907087829034,
        0.0,
        0.020761322207773922,
        0.060552922218727774,
        -0.05228279816790637,
        0.0,
        -0.05871431474130177,
        0.048221729307966074,
        0.0325342154033588,
        0.0,
        0.25648432970046997,
        1.1842713356018066,
        -0.6787534952163696,
        1.0
      ],
      "name": "Cork_2_lowpoly_3"
    },
    {
      "mesh": 2,
      "name": "Object_8"
    },
    {
      "children": [
        10
      ],
      "matrix": [
        0.006148962303996086,
        0.0,
        0.0,
        0.0,
        0.0,
        0.006148962303996086,
        0.0,
        0.0,
        0.0,
        0.0,
        0.006148962303996086,
        0.0,
        0.0,
        0.0,
        0.0,
        1.0
      ],
      "name": "Rope_4"
    },
    {
      "mesh": 3,
      "name": "Object_10"
    },
    {
      "children": [
        12
      ],
      "matrix": [
        0.030807660028689572,
        -0.0011869548587805842,
        -0.003520224246990941,
        0.0,
        0.0011344757139973602,
        0.031005625064172874,
        -0.0005260276283240696,
        0.0,
        0.00353748549522366,
        0.0003935463524056783,
        0.0308260272995066,
        0.0,
        -0.05690379813313484,
        1.6396297216415405,
        -0.3812793791294098,
        1.0
      ],
      "name": "Sphere_5"
    },
    {
      "mesh": 4,
      "name": "Object_12"
    }
  ],
  "samplers": [
    {
      "magFilter": 9729,
      "minFilter": 9987,
      "wrapS": 10497,
      "wrapT": 10497
    }
  ],
  "scene": 0,
  "scenes": [
    {
      "name": "Sketchfab_Scene",
      "nodes": [
        0
      ]
    }
  ],
  "textures": [
    {
      "sampler": 0,
      "source": 0
    }
  ]
}
